{"glyphs":{":":{"x_min":0,"x_max":303,"ha":303,"o":"m 97 -5 q 76 -5 62 9 q 48 23 48 45 q 48 65 62 80 q 77 95 97 95 q 117 95 132 80 q 147 65 147 45 q 147 23 133 9 q 119 -5 97 -5 z m 159 424 q 180 424 195 409 q 209 395 209 374 q 209 354 194 339 q 179 324 159 324 q 138 324 124 339 q 109 354 109 374 q 109 396 123 410 q 137 424 159 424 z"},"$":{"x_min":0,"x_max":551,"ha":551,"o":"m 266 398 l 316 678 l 307 678 q 238 678 198 639 q 157 600 157 534 q 157 486 183 454 q 208 422 266 398 z m 231 23 l 241 23 q 307 23 349 64 q 391 105 391 168 q 391 216 365 249 q 338 282 281 306 z m 195 -5 q 122 8 82 48 q 42 88 42 147 q 42 182 55 205 q 67 227 87 227 q 100 227 108 218 q 116 208 116 193 q 116 174 107 155 q 99 136 81 116 q 88 79 119 55 q 150 31 200 24 l 251 316 q 169 346 129 391 q 90 436 90 499 q 90 591 153 648 q 215 705 318 705 l 320 705 l 329 755 l 360 755 l 350 701 q 420 687 457 649 q 493 612 493 554 q 493 525 484 509 q 474 492 457 492 q 445 492 437 503 q 429 513 429 530 q 429 544 435 561 q 441 579 453 601 q 441 631 415 650 q 388 668 346 676 l 295 387 q 380 358 422 312 q 465 266 465 204 q 465 112 398 52 q 331 -7 225 -8 l 209 -100 l 178 -100 z"},"?":{"x_min":0,"x_max":470,"ha":470,"o":"m 187 165 q 193 217 209 260 q 224 303 252 346 q 257 354 267 368 q 336 473 336 554 q 336 617 308 652 q 281 687 232 687 q 182 687 151 659 q 120 630 117 581 q 136 571 145 556 q 154 540 154 518 q 154 503 146 493 q 138 484 125 484 q 105 484 93 502 q 80 521 80 551 q 80 626 131 677 q 182 727 258 727 q 328 727 369 684 q 411 641 411 569 q 411 474 295 335 q 282 320 276 313 q 255 287 239 248 q 223 208 213 160 z m 188 -5 q 167 -5 152 9 q 138 23 138 45 q 138 65 153 80 q 168 95 188 95 q 208 95 223 80 q 238 65 238 45 q 238 23 224 9 q 210 -5 188 -5 z"},"<":{"x_min":0,"x_max":833,"ha":833,"o":"m 704 559 l 704 497 l 216 298 l 704 100 l 704 37 l 129 273 l 129 323 z"},"'":{"x_min":0,"x_max":170,"ha":170,"o":"m 93 422 l 77 422 l 45 645 q 44 649 44 653 q 44 657 44 664 q 44 688 54 701 q 65 714 85 714 q 105 714 116 701 q 127 688 127 665 q 127 661 125 648 q 125 646 125 645 z"},"=":{"x_min":0,"x_max":833,"ha":833,"o":"m 124 233 l 709 233 l 709 176 l 124 176 z m 124 420 l 709 420 l 709 363 l 124 363 z"},"a":{"x_min":0,"x_max":553,"ha":553,"o":"m 356 372 q 356 374 357 375 q 357 377 357 381 q 357 409 333 435 q 310 461 281 461 q 249 461 216 433 q 184 405 159 354 q 130 295 114 234 q 97 172 97 123 q 97 79 112 58 q 126 36 155 36 q 190 36 235 83 q 279 129 320 212 z m 301 135 q 258 62 213 27 q 169 -9 122 -9 q 71 -9 44 25 q 18 59 18 125 q 18 182 35 240 q 51 299 82 350 q 121 415 171 450 q 221 486 272 486 q 308 486 332 471 q 356 457 369 427 l 384 486 l 458 486 l 375 142 q 371 126 369 111 q 367 96 367 82 q 367 62 375 51 q 383 40 397 40 q 417 40 438 63 q 459 86 479 129 l 502 120 q 477 58 439 24 q 402 -9 359 -9 q 327 -9 311 10 q 294 30 294 67 q 294 81 296 97 q 297 114 301 135 z"},"L":{"x_min":0,"x_max":595,"ha":595,"o":"m 292 32 l 316 32 q 380 32 409 39 q 438 46 458 62 q 481 82 499 118 q 516 153 531 213 l 557 213 q 544 150 534 97 q 523 43 515 0 l 9 0 l 9 32 q 49 33 65 45 q 82 58 88 98 l 170 592 q 173 612 175 627 q 177 642 177 647 q 177 667 163 675 q 148 683 110 685 l 110 718 q 136 716 166 715 q 195 714 229 714 q 263 714 292 715 q 322 716 350 718 l 350 685 q 297 684 281 673 q 264 661 257 620 l 160 32 z"},"3":{"x_min":0,"x_max":551,"ha":551,"o":"m 211 329 l 223 364 q 310 374 359 421 q 408 469 408 543 q 408 603 370 641 q 333 678 272 678 q 215 678 177 642 q 138 605 138 551 l 138 544 q 169 543 188 529 q 206 516 206 494 q 206 479 196 470 q 186 461 169 461 q 139 461 121 482 q 103 503 103 540 q 103 616 155 663 q 207 709 293 709 q 378 709 430 663 q 483 617 483 544 q 483 471 433 422 q 383 373 289 352 q 376 348 422 309 q 468 270 468 199 q 468 107 402 49 q 336 -9 233 -9 q 142 -9 85 36 q 29 81 29 152 q 29 188 44 210 q 59 233 82 233 q 96 233 103 225 q 111 216 111 201 q 111 183 99 163 q 86 143 65 128 q 66 87 111 56 q 155 25 216 25 q 294 25 342 74 q 389 123 389 205 q 389 268 354 300 q 319 331 249 331 q 242 331 220 330 q 214 329 211 329 z"},";":{"x_min":0,"x_max":303,"ha":303,"o":"m 159 424 q 180 424 195 409 q 209 395 209 374 q 209 354 194 339 q 179 324 159 324 q 138 324 124 339 q 109 354 109 374 q 109 396 123 410 q 137 424 159 424 z m -7 -148 q 54 -116 83 -83 q 112 -50 112 -13 q 112 -6 112 -3 q 111 0 111 3 q 101 0 93 -2 q 84 -4 77 -4 q 58 -4 48 8 q 37 20 37 41 q 37 65 52 80 q 66 95 91 95 q 120 95 136 74 q 153 53 153 16 q 153 -44 115 -92 q 78 -139 4 -172 z"},"J":{"x_min":0,"x_max":380,"ha":380,"o":"m 204 592 q 207 612 209 627 q 211 642 211 647 q 211 667 195 676 q 179 685 144 685 l 118 685 l 118 718 q 147 716 180 715 q 212 714 249 714 q 286 714 318 715 q 350 716 378 718 l 378 685 q 331 684 315 672 q 299 660 292 617 l 226 211 q 205 81 189 30 q 172 -21 148 -53 q 120 -90 83 -109 q 47 -128 4 -128 q -39 -128 -66 -106 q -94 -85 -94 -53 q -94 -35 -84 -23 q -74 -12 -59 -12 q -36 -12 -22 -29 q -8 -46 -8 -74 q -8 -78 -8 -82 q -9 -86 -10 -95 q 0 -98 6 -99 q 13 -100 17 -100 q 56 -100 80 -60 q 104 -21 118 66 z"},"V":{"x_min":0,"x_max":606,"ha":606,"o":"m 240 -9 l 104 612 q 93 661 77 672 q 61 683 18 685 l 18 718 q 44 716 74 715 q 103 714 137 714 q 171 714 201 715 q 231 716 259 718 l 259 685 q 221 685 205 676 q 190 667 190 645 q 190 637 194 613 q 195 607 196 604 l 292 134 l 492 571 q 504 599 511 619 q 518 640 518 650 q 518 669 506 676 q 493 683 447 685 l 447 718 q 469 716 493 715 q 518 714 545 714 q 572 714 596 715 q 619 716 640 718 l 640 685 q 609 684 591 668 q 572 652 545 594 l 265 3 z"},"\"":{"x_min":0,"x_max":331,"ha":331,"o":"m 253 422 l 238 422 l 206 645 q 206 646 206 648 q 204 659 204 664 q 204 688 215 701 q 226 714 246 714 q 266 714 276 701 q 287 688 287 665 q 287 658 287 654 q 287 649 286 645 z m 93 422 l 77 422 l 46 645 q 45 653 44 658 q 44 662 44 665 q 44 688 55 701 q 65 714 85 714 q 105 714 116 701 q 127 688 127 665 q 127 661 125 648 q 125 646 125 645 z"},"7":{"x_min":0,"x_max":551,"ha":551,"o":"m 473 649 q 453 634 429 626 q 406 619 376 619 q 343 619 288 627 q 232 635 210 635 q 171 635 144 611 q 118 586 90 524 l 68 532 q 83 572 99 617 q 114 661 129 712 l 149 708 l 125 625 q 151 668 174 686 q 197 703 227 703 q 270 703 339 692 q 407 681 433 681 q 464 681 485 688 q 506 695 519 709 l 538 693 q 472 568 388 431 q 369 400 364 391 q 318 312 296 260 q 275 207 263 149 q 255 113 247 58 q 234 -17 220 -17 q 215 -17 210 -14 q 204 -11 199 -6 l 176 16 q 169 22 166 29 q 163 36 163 44 q 163 74 188 143 q 212 211 252 282 q 284 338 365 460 q 447 582 473 649 z"},"S":{"x_min":0,"x_max":593,"ha":593,"o":"m 55 31 q 64 81 71 135 q 78 190 82 247 l 108 247 q 107 232 106 225 q 106 217 106 211 q 106 121 150 71 q 194 22 275 22 q 340 22 378 60 q 416 98 416 163 q 416 242 267 338 l 257 344 q 157 407 132 444 q 106 480 106 530 q 106 618 166 673 q 226 727 324 727 q 369 727 411 713 q 454 698 495 669 l 505 697 l 527 697 q 517 645 510 595 q 503 545 499 497 l 475 497 l 475 513 q 475 606 440 650 q 404 694 329 694 q 266 694 228 659 q 190 624 190 565 q 190 500 314 420 q 328 412 335 407 q 441 338 472 296 q 503 254 503 200 q 503 111 439 51 q 375 -10 280 -10 q 227 -10 179 10 q 131 29 89 68 l 76 31 z"},"}":{"x_min":0,"x_max":500,"ha":500,"o":"m 87 740 l 92 740 q 197 740 237 704 q 277 668 277 571 l 277 467 q 277 390 305 361 q 333 333 414 325 l 414 296 q 334 290 306 260 q 277 231 277 154 l 277 50 q 277 -47 237 -83 q 197 -119 92 -119 l 87 -119 l 87 -94 q 157 -93 182 -68 q 207 -42 207 34 l 207 104 q 207 214 237 255 q 267 295 347 310 q 267 325 237 365 q 207 406 207 516 l 207 586 q 207 662 182 688 q 156 714 87 715 z"},"Z":{"x_min":0,"x_max":660,"ha":660,"o":"m 7 0 l 7 6 l 478 681 l 315 681 q 236 681 202 675 q 169 668 151 652 q 136 639 127 615 q 117 591 108 542 l 83 542 q 91 593 95 639 q 99 686 100 729 q 129 723 177 720 q 224 718 297 718 l 604 718 l 604 706 l 133 37 l 358 37 q 458 37 500 72 q 542 107 560 203 l 587 203 q 575 149 566 96 q 558 43 552 -9 q 509 -4 463 -2 q 418 0 372 0 z"},"x":{"x_min":0,"x_max":566,"ha":566,"o":"m 235 209 q 177 98 131 45 q 84 -7 43 -7 q 22 -7 11 6 q 0 18 0 42 q 0 58 5 82 q 10 105 19 135 l 38 135 q 33 113 30 98 q 28 83 28 72 q 28 51 36 40 q 43 29 58 29 q 85 29 125 76 q 164 124 220 225 q 208 360 190 401 q 173 443 138 443 q 116 443 94 425 q 72 408 49 372 l 33 381 q 64 432 103 459 q 142 487 184 487 q 232 487 255 444 q 277 401 282 295 q 334 396 375 441 q 416 486 453 486 q 477 486 490 471 q 502 456 502 427 q 502 416 501 402 q 500 389 499 372 l 479 372 q 480 380 481 387 q 482 395 482 401 q 482 425 472 438 q 463 450 444 450 q 418 450 387 415 q 356 380 294 275 q 297 259 302 230 q 335 51 381 51 q 403 51 425 72 q 447 93 467 134 l 484 125 q 456 57 420 24 q 385 -10 342 -10 q 296 -10 273 35 q 250 81 235 209 z"},")":{"x_min":0,"x_max":389,"ha":389,"o":"m 102 742 q 195 633 242 518 q 288 402 288 279 q 288 124 199 -11 q 110 -146 -40 -219 l -48 -204 q 82 -127 154 9 q 226 145 226 313 q 226 420 192 524 q 158 628 89 731 z"},"&":{"x_min":0,"x_max":720,"ha":720,"o":"m 520 325 q 531 301 536 278 q 541 254 541 229 q 541 125 468 58 q 394 -9 280 -9 q 171 -9 104 49 q 37 107 37 201 q 37 275 80 328 q 124 381 207 409 q 156 434 130 469 q 105 505 105 552 q 105 626 161 677 q 217 727 301 727 q 379 727 428 693 q 477 658 477 606 q 477 588 470 578 q 464 569 451 569 q 432 569 422 587 q 411 606 411 639 q 411 647 413 662 q 413 665 413 666 q 398 682 374 690 q 349 698 318 698 q 259 698 222 656 q 186 614 186 544 q 186 489 212 454 q 237 419 288 406 l 275 380 q 266 382 256 386 q 246 389 234 394 q 182 376 151 328 q 120 279 120 213 q 120 132 171 82 q 222 32 304 32 q 397 32 451 83 q 505 133 505 221 q 505 247 498 274 q 491 301 477 330 q 461 332 449 332 q 438 333 430 333 q 393 333 371 319 q 349 306 339 277 q 353 266 361 249 q 369 233 369 214 q 369 197 361 188 q 354 178 340 178 q 324 178 313 195 q 303 211 303 237 q 303 296 348 331 q 393 366 469 366 q 493 366 547 362 q 601 357 630 357 q 666 357 680 366 q 695 375 704 398 l 719 391 q 706 344 691 330 q 677 315 646 315 q 633 315 620 315 q 607 316 597 317 z"},"_":{"x_min":0,"x_max":500,"ha":500,"o":"m 0 -178 l 500 -178 l 500 -236 l 0 -236 z"},"v":{"x_min":0,"x_max":505,"ha":505,"o":"m 274 482 q 219 375 189 279 q 158 183 158 120 q 158 76 174 55 q 190 34 223 34 q 259 34 295 64 q 332 94 358 147 q 385 202 398 250 q 412 298 412 339 l 412 348 q 398 374 391 398 q 384 422 384 446 q 384 464 392 475 q 400 486 413 486 q 431 486 441 463 q 450 439 450 394 q 450 331 431 263 q 412 194 376 130 q 338 62 292 27 q 245 -9 192 -9 q 139 -9 112 26 q 84 60 84 126 q 84 199 121 280 q 158 361 234 456 q 209 440 186 432 q 163 424 140 424 q 128 424 105 427 q 82 430 70 430 q 50 430 33 415 q 17 399 -2 364 l -18 374 q 11 432 37 456 q 62 480 93 480 q 106 480 139 473 q 173 467 193 467 q 207 467 220 471 q 234 475 255 486 z"},"O":{"x_min":0,"x_max":729,"ha":729,"o":"m 133 270 q 133 154 185 87 q 237 20 326 20 q 370 20 410 39 q 451 58 482 94 q 536 156 567 249 q 597 342 597 445 q 597 557 544 625 q 491 692 404 692 q 354 692 309 668 q 264 645 232 601 q 185 536 159 450 q 133 364 133 270 z m 335 -12 q 202 -12 120 77 q 38 167 38 314 q 38 375 52 431 q 65 486 91 533 q 144 626 224 676 q 304 725 401 725 q 532 725 612 636 q 693 548 693 403 q 693 343 679 288 q 666 232 641 187 q 586 89 509 39 q 431 -12 335 -12 z"},"(":{"x_min":0,"x_max":389,"ha":389,"o":"m 275 -219 q 183 -111 136 4 q 89 118 89 236 q 89 397 177 532 q 265 668 417 742 l 425 727 q 295 651 223 514 q 151 378 151 210 q 151 103 185 -1 q 219 -105 288 -208 z"},"C":{"x_min":0,"x_max":637,"ha":637,"o":"m 580 180 q 540 86 474 39 q 407 -9 316 -9 q 188 -9 111 73 q 35 156 35 295 q 35 374 55 445 q 75 517 114 575 q 162 647 234 687 q 307 727 391 727 q 451 727 501 706 q 551 686 590 644 l 606 683 l 630 681 q 622 636 614 582 q 605 527 596 457 l 570 459 q 572 472 573 485 q 574 498 574 512 q 574 596 530 644 q 485 692 407 692 q 340 692 288 660 q 235 628 200 567 q 167 510 150 436 q 132 362 132 282 q 132 165 186 100 q 239 36 336 36 q 411 36 465 73 q 519 111 558 190 z"},"W":{"x_min":0,"x_max":935,"ha":935,"o":"m 567 -9 l 488 528 l 261 3 l 236 -9 l 111 612 q 102 658 85 671 q 69 683 25 685 l 25 718 q 51 716 81 715 q 110 714 144 714 q 178 714 208 715 q 238 716 266 718 l 266 685 q 228 685 212 676 q 197 667 197 645 q 197 638 201 617 q 202 609 203 604 l 287 134 l 478 588 l 476 612 q 473 652 455 667 q 437 683 389 685 l 389 718 q 416 716 445 715 q 474 714 508 714 q 542 714 572 715 q 603 716 630 718 l 630 685 q 590 685 576 676 q 562 667 562 641 q 562 626 562 619 q 563 611 564 604 l 625 143 l 819 571 q 832 599 838 619 q 845 640 845 650 q 845 669 833 676 q 820 683 774 685 l 774 718 q 796 716 820 715 q 844 714 871 714 q 898 714 922 715 q 945 716 966 718 l 966 685 q 936 684 918 668 q 899 653 872 594 l 592 3 z"},"A":{"x_min":0,"x_max":630,"ha":630,"o":"m 189 308 l 384 308 l 338 627 z m 101 114 q 94 101 90 86 q 86 72 86 63 q 86 47 100 40 q 113 34 151 33 l 151 0 q 126 2 103 4 q 79 5 58 5 q 37 5 14 4 q -9 2 -33 0 l -33 33 q -2 34 19 53 q 40 73 71 139 l 309 632 q 326 652 341 675 q 356 697 370 723 l 402 731 l 498 141 q 499 136 500 126 q 515 36 586 33 l 586 0 q 553 2 523 4 q 493 5 465 5 q 438 5 409 4 q 379 2 346 0 l 346 33 q 388 35 401 45 q 415 56 415 85 q 415 91 412 110 q 411 118 411 122 l 389 275 l 176 275 z"},"f":{"x_min":0,"x_max":310,"ha":310,"o":"m 201 431 l 166 213 q 125 -42 78 -132 q 31 -222 -50 -222 q -86 -222 -107 -201 q -129 -181 -129 -146 q -129 -124 -120 -111 q -111 -99 -94 -99 q -81 -99 -71 -110 q -62 -121 -62 -137 q -62 -150 -65 -163 q -68 -176 -74 -187 q -69 -191 -64 -194 q -59 -196 -53 -196 q -8 -196 19 -132 q 46 -69 76 119 l 125 431 l 30 431 l 30 458 l 129 458 q 151 601 202 672 q 253 743 333 743 q 382 743 413 718 q 444 692 444 652 q 444 630 435 618 q 426 606 409 606 q 395 606 385 617 q 376 628 376 644 q 376 657 379 669 q 383 682 389 694 q 379 704 367 709 q 354 715 341 715 q 287 715 257 658 q 227 602 206 458 l 314 458 l 314 431 z"},"Q":{"x_min":0,"x_max":729,"ha":729,"o":"m 362 -11 q 357 -12 352 -12 q 347 -12 337 -12 q 201 -12 119 77 q 38 166 38 314 q 38 375 52 431 q 65 486 91 533 q 143 625 223 675 q 304 725 401 725 q 532 725 612 636 q 693 548 693 403 q 693 263 623 155 q 554 46 437 5 q 450 -42 477 -63 q 505 -85 551 -85 q 574 -85 597 -79 q 621 -73 645 -60 l 645 -88 q 616 -106 582 -116 q 548 -126 512 -126 q 454 -126 416 -97 q 378 -68 362 -11 z m 350 22 q 342 80 313 106 q 285 132 231 132 q 215 132 199 128 q 183 125 166 117 q 194 67 231 43 q 268 20 318 20 q 323 20 330 20 q 336 21 350 22 z m 422 47 q 500 92 549 201 q 597 311 597 445 q 597 557 544 625 q 491 692 404 692 q 354 692 309 668 q 264 645 232 601 q 185 537 158 450 q 132 362 132 270 q 132 235 138 204 q 144 172 155 143 q 180 153 204 158 q 229 163 254 163 q 323 163 363 135 q 404 107 422 47 z"},"w":{"x_min":0,"x_max":755,"ha":755,"o":"m 492 472 q 457 348 439 262 q 421 176 421 127 q 421 86 436 64 q 450 42 477 42 q 525 42 577 126 q 628 209 662 348 q 650 373 645 395 q 639 417 639 438 q 639 462 646 474 q 654 486 668 486 q 685 486 693 469 q 701 453 701 418 q 701 371 683 305 q 664 240 630 170 q 586 81 537 36 q 488 -9 435 -9 q 393 -9 373 19 q 353 46 353 105 q 353 129 355 148 q 358 167 363 182 q 316 83 270 37 q 223 -9 169 -9 q 127 -9 105 20 q 82 49 82 102 q 82 179 117 261 q 152 344 234 456 q 209 440 186 432 q 163 424 140 424 q 128 424 105 427 q 82 430 70 430 q 50 430 33 415 q 17 399 -2 364 l -18 374 q 11 432 37 456 q 62 480 93 480 q 106 480 139 473 q 173 467 193 467 q 207 467 220 471 q 234 475 255 486 l 274 482 q 219 376 188 278 q 157 179 157 116 q 157 79 168 62 q 180 45 205 45 q 255 45 313 144 q 371 242 411 403 l 428 472 z"},"-":{"x_min":0,"x_max":345,"ha":345,"o":"m 31 214 l 42 274 l 277 274 l 266 214 z"},"E":{"x_min":0,"x_max":661,"ha":661,"o":"m 9 0 l 9 32 q 49 33 65 45 q 82 58 88 98 l 170 592 q 173 612 175 627 q 177 642 177 647 q 177 667 163 675 q 148 683 110 685 l 110 718 l 595 718 l 589 524 l 563 524 q 563 530 563 540 q 564 549 564 554 q 564 629 537 657 q 509 685 432 685 l 269 685 l 219 387 l 264 387 q 356 387 384 409 q 411 431 419 495 l 444 495 q 432 434 422 368 q 412 302 404 232 l 378 232 q 380 247 381 261 q 382 274 382 285 q 382 328 366 341 q 351 354 295 354 l 213 354 l 160 32 l 337 32 q 401 32 430 39 q 459 46 479 62 q 500 80 517 113 q 534 145 551 204 l 577 204 q 569 170 560 127 q 551 84 535 0 z"},"s":{"x_min":0,"x_max":410,"ha":410,"o":"m 54 72 q 62 46 88 31 q 115 16 155 16 q 198 16 224 41 q 250 65 250 105 q 250 157 173 204 l 168 207 q 96 250 77 278 q 58 306 58 348 q 58 410 99 448 q 141 486 208 486 q 268 486 309 457 q 350 427 350 386 q 350 365 341 352 q 333 340 318 340 q 304 340 295 350 q 287 361 287 378 q 287 388 291 400 q 294 412 302 425 q 287 443 263 452 q 239 462 210 462 q 169 462 145 440 q 121 418 121 381 q 121 354 135 335 q 148 315 186 291 q 195 285 213 274 q 263 245 286 224 q 303 209 311 188 q 319 167 319 139 q 319 75 273 33 q 228 -9 156 -9 q 89 -9 50 23 q 10 55 10 107 q 10 133 19 147 q 29 162 45 162 q 59 162 67 152 q 76 142 76 126 q 76 116 71 103 q 65 90 54 72 z"},">":{"x_min":0,"x_max":833,"ha":833,"o":"m 129 559 l 704 323 l 704 273 l 129 37 l 129 100 l 617 298 l 129 497 z"},"l":{"x_min":0,"x_max":292,"ha":292,"o":"m 254 743 l 118 126 q 115 111 113 98 q 111 84 111 76 q 111 58 120 47 q 129 36 144 36 q 165 36 188 60 q 211 83 238 133 l 259 122 q 227 55 190 23 q 153 -9 109 -9 q 74 -9 54 10 q 34 30 34 64 q 34 83 44 131 l 45 136 l 152 619 q 156 639 158 652 q 160 666 160 674 q 160 708 98 711 l 96 711 l 96 739 q 106 738 118 737 q 130 737 154 737 q 178 737 203 739 q 229 740 254 743 z"},"8":{"x_min":0,"x_max":551,"ha":551,"o":"m 244 343 q 172 322 137 280 q 102 237 102 172 q 102 104 141 62 q 180 20 242 20 q 307 20 351 65 q 394 109 394 177 q 394 237 361 274 q 328 311 244 343 z m 314 386 q 369 401 399 444 q 430 487 430 549 q 430 607 395 643 q 360 678 302 678 q 243 678 206 641 q 170 604 170 543 q 170 493 204 457 q 237 420 314 386 z m 214 363 q 154 397 127 435 q 100 473 100 523 q 100 605 156 656 q 212 708 303 708 q 388 708 439 662 q 490 617 490 541 q 490 480 457 440 q 424 399 346 367 q 410 341 441 299 q 473 256 473 198 q 473 156 455 117 q 436 79 402 50 q 369 21 326 6 q 284 -9 236 -9 q 146 -9 89 40 q 33 89 33 167 q 33 238 81 289 q 128 341 214 363 z"},"\\":{"x_min":0,"x_max":296,"ha":296,"o":"m 24 727 l 73 727 l 294 -93 l 246 -93 z"},"e":{"x_min":0,"x_max":444,"ha":444,"o":"m 119 270 q 228 271 281 304 q 333 337 333 404 q 333 430 319 444 q 305 458 279 458 q 225 458 185 411 q 145 363 119 270 z m 113 244 q 106 217 103 189 q 99 160 99 129 q 99 77 118 53 q 137 29 178 29 q 221 29 260 59 q 299 88 330 144 l 349 131 q 317 62 267 26 q 218 -9 152 -9 q 86 -9 50 32 q 14 74 14 149 q 14 217 39 280 q 63 343 110 397 q 148 440 195 463 q 243 486 294 486 q 343 486 371 464 q 398 443 398 404 q 398 329 324 288 q 250 246 113 244 z"},"b":{"x_min":0,"x_max":521,"ha":521,"o":"m 141 225 l 109 81 q 108 74 107 70 q 107 66 107 64 q 107 42 122 30 q 138 18 167 18 q 206 18 238 38 q 269 58 301 103 q 323 135 340 174 q 358 212 370 256 q 379 291 384 318 q 389 345 389 363 q 389 398 374 417 q 359 435 330 435 q 288 435 239 381 q 191 328 141 225 z m 142 618 q 146 637 148 650 q 150 664 150 673 q 150 695 141 702 q 132 709 86 711 l 86 738 q 108 737 119 736 q 131 736 140 736 q 167 736 194 738 q 220 740 244 743 l 144 285 q 198 381 248 426 q 298 471 350 471 q 403 471 433 432 q 464 393 464 325 q 464 254 437 188 q 411 123 362 73 q 321 32 273 12 q 226 -9 172 -9 q 142 -9 113 -2 q 84 5 55 19 l 20 -7 l 5 5 q 18 29 27 60 q 37 90 45 129 z"},"%":{"x_min":0,"x_max":847,"ha":847,"o":"m 536 96 q 536 63 555 44 q 573 26 606 26 q 631 26 657 41 q 683 55 709 84 q 747 127 766 174 q 786 221 786 268 q 786 309 768 331 q 750 353 717 353 q 696 353 672 339 q 649 326 629 301 q 589 251 562 191 q 536 131 536 96 z m 592 0 q 538 0 505 35 q 472 70 472 128 q 472 164 486 200 q 500 237 527 274 q 567 329 610 356 q 654 383 700 383 q 750 383 781 351 q 812 319 812 267 q 812 228 798 187 q 785 146 759 107 q 726 58 681 29 q 636 0 592 0 z m 341 628 q 335 632 325 638 q 287 662 281 669 l 279 669 q 252 669 227 651 q 202 633 174 593 q 138 541 117 493 q 97 445 97 412 q 97 379 115 361 q 133 342 165 342 q 193 342 219 355 q 244 368 269 394 q 306 434 327 486 q 348 538 348 587 q 348 597 346 607 q 345 617 341 628 z m 163 -19 l 596 649 q 561 627 527 616 q 494 606 458 606 q 435 606 412 610 q 390 613 369 620 q 369 618 370 615 q 373 592 373 583 q 373 546 361 506 q 348 466 325 428 q 292 374 247 345 q 202 316 152 316 q 98 316 66 349 q 33 382 33 436 q 33 478 50 521 q 67 565 99 605 q 135 650 177 674 q 218 698 262 698 q 291 698 313 687 q 336 675 354 652 q 379 639 404 632 q 429 625 454 625 q 510 625 559 650 q 607 675 644 722 l 687 722 l 206 -19 z"},"m":{"x_min":0,"x_max":845,"ha":845,"o":"m 61 0 l 137 345 q 142 365 144 381 q 146 396 146 407 q 146 426 138 437 q 131 448 117 448 q 92 448 67 426 q 41 403 10 354 l -10 367 q 23 426 63 456 q 103 486 147 486 q 181 486 198 469 q 216 452 216 419 q 216 403 213 381 q 209 360 203 333 q 256 413 302 449 q 349 486 396 486 q 430 486 447 469 q 465 452 465 419 q 465 403 462 381 q 458 360 452 333 q 508 416 553 451 q 599 486 648 486 q 691 486 716 464 q 740 442 740 404 q 740 386 734 360 q 727 333 710 284 l 652 119 q 646 102 642 88 q 639 73 639 63 q 639 48 647 40 q 656 32 671 32 q 693 32 716 55 q 738 78 767 130 l 788 119 q 757 53 720 21 q 684 -10 638 -10 q 602 -10 581 10 q 560 29 560 63 q 560 77 563 94 q 566 110 573 127 l 641 316 q 651 345 657 369 q 663 392 663 405 q 663 427 654 437 q 645 447 624 447 q 603 447 579 432 q 555 417 530 389 q 488 341 465 298 q 442 255 431 205 l 386 0 l 310 0 l 386 345 q 391 365 393 381 q 395 396 395 407 q 395 426 387 437 q 379 448 366 448 q 350 448 333 438 q 316 428 293 404 q 248 357 221 309 q 194 260 182 205 l 137 0 z"},"#":{"x_min":0,"x_max":769,"ha":769,"o":"m 342 424 l 293 284 l 434 284 l 484 424 z m 380 711 l 445 711 l 363 481 l 503 481 l 585 711 l 649 711 l 568 481 l 718 481 l 698 424 l 547 424 l 498 284 l 660 284 l 639 228 l 478 228 l 397 -1 l 332 -1 l 413 228 l 273 228 l 192 -1 l 128 -1 l 209 228 l 51 228 l 72 284 l 229 284 l 278 424 l 108 424 l 129 481 l 299 481 z"},",":{"x_min":0,"x_max":275,"ha":275,"o":"m 0 -148 q 61 -116 90 -83 q 119 -50 119 -13 q 119 -6 119 -3 q 119 0 118 3 q 108 0 100 -2 q 91 -4 84 -4 q 65 -4 55 8 q 44 20 44 41 q 44 65 59 80 q 74 95 98 95 q 127 95 143 74 q 159 53 159 16 q 159 -45 122 -92 q 84 -139 11 -172 z"},"n":{"x_min":0,"x_max":596,"ha":596,"o":"m 61 0 l 137 345 q 142 365 144 381 q 146 396 146 407 q 146 426 138 437 q 131 448 117 448 q 92 448 67 426 q 41 403 10 354 l -10 367 q 23 426 63 456 q 103 486 147 486 q 181 486 198 469 q 216 452 216 419 q 216 403 213 381 q 209 360 203 333 q 259 416 304 451 q 350 486 399 486 q 442 486 467 464 q 491 442 491 404 q 491 385 484 357 q 478 330 462 284 l 403 119 q 396 102 393 88 q 390 73 390 63 q 390 48 399 40 q 408 32 423 32 q 445 32 467 55 q 489 77 518 130 l 539 119 q 508 53 471 21 q 435 -10 389 -10 q 353 -10 332 10 q 311 29 311 63 q 311 77 314 94 q 317 110 324 127 l 392 316 q 403 348 409 370 q 415 393 415 405 q 415 427 406 437 q 396 447 375 447 q 354 447 330 432 q 306 417 281 389 q 239 341 216 298 q 193 255 182 205 l 137 0 z"},"h":{"x_min":0,"x_max":558,"ha":558,"o":"m 102 0 l 26 0 l 152 618 q 156 638 158 651 q 160 665 160 673 q 160 695 151 702 q 142 709 96 711 l 96 738 q 118 737 129 736 q 141 736 150 736 q 177 736 203 738 q 229 739 254 743 l 170 339 q 221 416 267 451 q 312 486 361 486 q 404 486 428 464 q 453 442 453 404 q 453 385 447 357 q 440 330 424 284 l 365 119 q 358 102 355 88 q 352 73 352 63 q 352 48 361 40 q 370 32 385 32 q 407 32 429 55 q 451 77 480 130 l 501 119 q 470 53 433 21 q 397 -10 351 -10 q 314 -10 294 10 q 273 29 273 63 q 273 77 276 94 q 280 110 286 127 l 354 316 q 365 348 371 370 q 377 393 377 405 q 377 427 367 437 q 358 447 337 447 q 316 447 292 432 q 268 417 243 389 q 201 341 178 298 q 154 254 144 205 z"},"z":{"x_min":0,"x_max":451,"ha":451,"o":"m 16 -3 l 2 12 q 34 69 65 115 q 97 162 129 199 q 149 222 226 303 q 302 385 344 443 q 325 427 303 420 q 281 413 252 413 q 223 413 180 420 q 137 427 124 427 q 104 427 86 414 q 68 401 44 366 l 30 375 q 64 436 94 461 q 123 487 155 487 q 170 487 226 475 q 282 464 321 464 q 344 464 357 469 q 371 474 379 484 l 390 474 q 361 419 324 368 q 287 317 240 267 q 221 247 184 209 q 95 120 67 70 q 81 83 96 89 q 111 95 129 95 q 161 95 226 77 q 292 59 323 59 q 349 59 361 76 q 373 92 375 131 l 390 131 l 390 117 q 390 47 371 19 q 353 -10 307 -10 q 274 -10 197 13 q 120 36 79 36 q 57 36 42 27 q 27 18 16 -3 z"},"B":{"x_min":0,"x_max":638,"ha":638,"o":"m 160 32 q 184 31 203 30 q 222 29 234 29 q 344 29 394 72 q 445 114 445 206 q 445 276 403 311 q 361 345 276 345 l 212 345 z m 218 378 q 228 377 238 376 q 248 376 268 376 q 370 376 418 421 q 466 466 466 562 q 466 628 433 658 q 399 689 328 689 q 313 689 298 688 q 284 687 269 685 z m 9 0 l 9 32 q 49 33 65 45 q 82 58 88 98 l 170 592 q 173 612 175 627 q 177 642 177 647 q 177 667 163 675 q 148 683 110 685 l 110 718 q 125 717 142 717 q 159 717 190 717 q 232 717 285 719 q 339 720 351 720 q 450 720 501 677 q 553 635 553 553 q 553 470 497 419 q 441 368 345 363 q 438 349 486 304 q 534 260 534 189 q 534 94 465 43 q 396 -8 267 -8 q 243 -8 175 -3 q 107 1 63 1 q 41 1 30 1 q 19 0 9 0 z"},"K":{"x_min":0,"x_max":631,"ha":631,"o":"m 9 0 l 9 32 q 49 33 65 45 q 82 58 88 98 l 170 592 q 173 612 175 627 q 177 642 177 647 q 177 667 163 675 q 148 683 110 685 l 110 718 q 135 716 163 715 q 190 714 222 714 q 254 714 282 715 q 311 716 336 718 l 336 685 q 295 684 280 672 q 264 660 257 620 l 210 336 q 334 451 414 543 q 494 635 494 659 q 494 670 483 677 q 473 684 452 685 l 452 718 q 486 716 506 715 q 525 714 541 714 q 557 714 576 715 q 595 715 634 718 l 634 685 l 629 685 q 585 685 532 624 l 527 618 q 526 617 522 612 q 439 515 323 398 q 419 264 505 110 q 516 90 520 83 q 537 54 557 43 q 577 32 613 32 l 613 0 q 594 1 570 1 q 547 2 499 2 q 451 2 426 1 q 402 1 380 0 l 380 32 q 406 33 416 39 q 426 45 426 59 q 426 79 401 126 q 376 173 324 250 l 262 342 l 203 294 l 176 125 q 173 104 171 89 q 169 74 169 70 q 169 50 183 42 q 198 34 236 32 l 236 0 q 205 2 177 4 q 150 5 124 5 q 98 5 70 4 q 42 2 9 0 z"},"R":{"x_min":0,"x_max":664,"ha":664,"o":"m 218 382 q 239 380 256 380 q 273 379 285 379 q 385 379 439 426 q 494 474 494 559 q 494 623 457 658 q 420 693 352 693 q 339 693 319 691 q 299 689 269 685 z m 176 125 q 173 104 171 89 q 169 74 169 70 q 169 50 183 42 q 198 34 236 32 l 236 0 q 205 2 177 4 q 150 5 124 5 q 98 5 70 4 q 42 2 9 0 l 9 32 q 49 33 65 45 q 82 58 88 98 l 170 592 q 173 612 175 627 q 177 642 177 647 q 177 667 163 675 q 149 683 110 685 l 110 718 q 134 716 156 716 q 178 715 198 715 q 239 715 292 718 q 345 721 357 721 q 467 721 525 676 q 584 630 584 546 q 584 464 528 418 q 472 372 362 364 q 434 348 465 311 q 496 273 496 204 q 496 188 493 151 q 490 114 490 93 q 490 66 503 52 q 516 37 539 37 q 559 37 573 49 q 588 62 606 93 l 625 83 q 601 36 570 13 q 539 -9 497 -9 q 449 -9 424 18 q 399 44 399 96 q 399 122 406 172 q 414 221 414 245 q 414 304 381 327 q 348 350 260 350 q 242 350 232 350 q 222 350 213 349 z"},"T":{"x_min":0,"x_max":650,"ha":650,"o":"m 414 685 l 322 125 q 321 116 318 102 q 314 73 314 70 q 314 50 330 41 q 347 32 381 32 l 398 32 l 398 0 q 363 2 331 4 q 299 5 270 5 q 241 5 209 4 q 177 2 141 0 l 141 32 l 155 32 q 194 32 211 45 q 227 57 234 98 l 332 685 l 224 685 q 151 685 115 653 q 79 622 62 544 l 35 544 q 49 595 61 639 q 72 683 82 725 q 108 722 140 720 q 171 718 210 718 l 562 718 q 600 718 624 719 q 648 721 667 725 q 667 677 666 627 q 666 577 664 523 l 640 523 l 640 541 q 640 619 611 652 q 582 685 513 685 z"},"P":{"x_min":0,"x_max":593,"ha":593,"o":"m 212 346 q 220 346 235 345 q 262 344 270 344 q 381 344 430 389 q 479 434 479 535 q 479 615 438 651 q 397 686 304 686 q 291 686 283 686 q 276 686 270 685 z m 208 314 l 176 125 q 173 106 171 91 q 169 76 169 70 q 169 50 185 41 q 202 32 236 32 l 260 32 l 260 0 q 223 2 191 4 q 160 5 132 5 q 104 5 73 4 q 42 2 9 0 l 9 32 q 49 33 65 45 q 82 58 88 98 l 170 592 q 173 612 175 627 q 177 642 177 647 q 177 667 163 675 q 148 683 110 685 l 110 718 q 113 718 119 718 q 167 716 189 716 q 222 716 269 718 q 315 719 330 719 q 445 719 507 668 q 569 617 569 522 q 569 416 497 363 q 426 310 281 310 q 261 310 215 313 q 210 314 208 314 z"},"|":{"x_min":0,"x_max":500,"ha":500,"o":"m 219 764 l 281 764 l 281 -236 l 219 -236 z"},"t":{"x_min":0,"x_max":354,"ha":354,"o":"m 120 426 l 45 426 l 45 454 l 126 454 l 162 617 l 232 617 l 199 454 l 316 454 l 316 426 l 193 426 l 134 136 q 130 116 128 102 q 126 88 126 79 q 126 57 136 43 q 147 30 164 30 q 192 30 221 60 q 250 90 278 148 l 295 137 q 267 65 226 28 q 186 -9 135 -9 q 93 -9 71 13 q 49 35 49 78 q 49 95 50 108 q 52 122 55 134 z"},"M":{"x_min":0,"x_max":850,"ha":850,"o":"m 117 113 q 116 106 114 96 q 110 76 110 72 q 110 50 126 41 q 142 32 182 32 l 182 0 q 155 2 132 4 q 108 5 87 5 q 66 5 43 4 q 20 2 -6 0 l -6 32 l 4 32 q 62 32 83 136 l 84 139 l 180 597 q 184 613 185 626 q 187 640 187 650 q 187 667 172 675 q 156 682 110 685 l 110 718 q 131 716 153 715 q 176 714 202 714 q 228 714 250 715 q 273 716 294 718 l 387 164 l 670 718 q 684 717 699 717 q 714 717 746 717 q 778 717 794 717 q 811 717 825 718 l 825 685 q 822 686 818 686 q 815 686 809 686 q 786 686 775 672 q 764 657 757 608 l 684 121 q 682 108 681 96 q 680 84 680 72 q 680 48 693 40 q 707 32 753 32 l 753 0 q 719 2 690 4 q 660 5 633 5 q 606 5 577 4 q 548 2 513 0 l 513 32 l 520 32 q 559 32 575 49 q 591 65 602 135 l 682 667 l 351 28 l 329 11 l 222 658 z"},"g":{"x_min":0,"x_max":502,"ha":502,"o":"m 453 477 q 417 327 386 160 q 355 -6 351 -22 q 325 -125 269 -174 q 213 -222 120 -222 q 56 -222 18 -194 q -20 -167 -20 -120 q -20 -100 -10 -86 q 0 -73 15 -73 q 29 -73 36 -83 q 44 -92 44 -110 q 44 -122 40 -133 q 35 -145 26 -157 q 37 -174 62 -184 q 87 -194 122 -194 q 199 -194 242 -116 q 285 -39 310 150 q 265 77 221 42 q 178 8 131 8 q 80 8 49 46 q 19 84 19 150 q 19 200 35 253 q 52 306 83 356 q 121 417 171 452 q 221 486 272 486 q 304 486 328 473 q 353 460 370 434 l 379 477 z m 359 387 l 359 390 q 359 411 335 433 q 312 456 283 456 q 250 456 219 430 q 188 404 163 355 q 135 301 119 242 q 103 183 103 139 q 103 99 119 76 q 135 54 164 54 q 198 54 235 92 q 272 129 323 215 z"},"j":{"x_min":0,"x_max":308,"ha":308,"o":"m 188 592 q 170 592 160 601 q 150 611 150 628 q 150 649 165 667 q 181 684 201 684 q 217 684 229 672 q 240 660 240 643 q 240 622 225 607 q 209 592 188 592 z m 28 347 l 4 356 q 32 424 69 455 q 105 486 159 486 q 195 486 213 470 q 231 455 231 424 q 231 415 229 400 q 227 386 223 364 l 149 24 q 124 -98 71 -160 q 19 -222 -60 -222 q -100 -222 -123 -203 q -147 -184 -147 -153 q -147 -136 -138 -126 q -128 -116 -113 -116 q -92 -116 -81 -132 q -70 -148 -70 -179 q -70 -181 -70 -187 q -71 -192 -71 -195 q -65 -198 -61 -199 q -57 -200 -53 -200 q -11 -200 15 -157 q 41 -113 72 28 l 153 395 q 154 401 155 406 q 156 411 156 416 q 156 433 148 442 q 140 451 125 451 q 99 451 74 424 q 48 396 28 347 z"},"i":{"x_min":0,"x_max":346,"ha":346,"o":"m 203 575 q 184 575 172 586 q 160 596 160 614 q 160 638 175 652 q 189 667 211 667 q 230 667 240 657 q 250 647 250 628 q 250 604 237 589 q 225 575 203 575 z m 35 349 l 12 360 q 40 422 79 454 q 119 487 165 487 q 194 487 212 471 q 229 456 229 430 q 229 411 216 366 l 216 364 l 156 159 q 147 129 143 106 q 138 84 138 71 q 138 50 145 42 q 152 33 168 33 q 191 33 213 55 q 234 77 264 130 l 285 119 q 254 53 218 21 q 181 -10 136 -10 q 100 -10 79 10 q 58 29 58 63 q 58 81 70 123 l 71 127 l 134 342 q 141 364 144 381 q 147 397 147 411 q 147 426 141 435 q 135 443 123 443 q 104 443 82 419 q 59 395 35 349 z"},"y":{"x_min":0,"x_max":556,"ha":556,"o":"m 415 477 l 490 477 q 457 333 422 168 q 387 3 381 -20 q 355 -122 302 -172 q 249 -222 167 -222 q 105 -222 65 -199 q 25 -176 25 -142 q 25 -125 32 -117 q 40 -109 54 -109 q 79 -109 93 -128 q 108 -146 108 -178 l 108 -183 q 119 -188 132 -191 q 146 -194 162 -194 q 238 -194 276 -125 q 315 -57 351 177 q 302 96 249 52 q 195 8 148 8 q 115 8 97 26 q 79 44 79 78 q 79 101 88 138 q 96 175 124 266 l 127 275 q 159 379 159 412 q 159 428 151 436 q 143 444 127 444 q 105 444 82 421 q 59 397 31 347 l 10 357 q 41 422 79 455 q 117 487 163 487 q 196 487 215 470 q 233 454 233 423 q 233 387 188 240 l 187 235 l 184 226 q 155 130 155 100 q 155 80 164 70 q 173 60 192 60 q 214 60 240 80 q 266 100 298 141 q 322 172 341 206 q 359 240 363 257 z"},"@":{"x_min":0,"x_max":986,"ha":986,"o":"m 581 164 q 551 112 513 87 q 476 61 430 61 q 369 61 332 106 q 295 151 295 225 q 295 278 319 331 q 343 383 386 425 q 418 456 457 474 q 495 491 532 491 q 575 491 602 467 q 629 443 640 396 l 666 484 l 736 484 l 653 186 q 653 185 652 184 q 644 155 644 133 q 644 110 656 96 q 669 83 690 83 q 707 83 729 92 q 750 100 770 115 q 830 159 861 228 q 893 297 893 382 q 893 450 869 505 q 844 560 794 604 q 750 643 688 664 q 627 685 558 685 q 467 685 391 656 q 316 628 257 571 q 193 509 161 427 q 128 346 128 247 q 128 162 156 98 q 184 35 244 -16 q 300 -63 372 -88 q 443 -112 528 -112 q 607 -112 683 -86 q 758 -61 827 -11 l 842 -29 q 770 -83 689 -110 q 608 -137 522 -137 q 431 -137 355 -115 q 279 -92 221 -47 q 147 8 109 87 q 71 166 71 262 q 71 362 113 448 q 155 535 235 601 q 299 655 377 682 q 455 709 545 709 q 714 709 815 618 q 916 526 916 374 q 916 297 888 229 q 859 161 808 114 q 780 88 748 75 q 715 61 682 61 q 635 61 609 87 q 584 112 581 164 z m 536 471 q 510 471 488 456 q 466 441 443 407 q 408 354 387 293 q 366 231 366 183 q 366 138 386 111 q 406 85 439 85 q 471 85 500 107 q 530 128 557 172 q 585 218 602 271 q 618 324 618 367 q 618 413 595 442 q 572 471 536 471 z"},".":{"x_min":0,"x_max":275,"ha":275,"o":"m 99 -5 q 78 -5 63 9 q 49 23 49 45 q 49 65 64 80 q 79 95 99 95 q 119 95 134 80 q 149 65 149 45 q 149 23 135 9 q 121 -5 99 -5 z"},"p":{"x_min":0,"x_max":553,"ha":553,"o":"m 170 103 q 183 73 204 58 q 225 42 253 42 q 285 42 314 63 q 342 85 363 125 q 389 173 404 233 q 418 293 418 347 q 418 392 402 416 q 386 440 354 440 q 317 440 279 397 q 241 354 203 269 z m 143 345 q 146 366 148 382 q 150 397 150 408 q 150 428 143 437 q 136 447 121 447 q 100 447 73 424 q 47 400 17 354 l -3 367 q 30 426 70 456 q 109 486 152 486 q 186 486 204 469 q 222 452 222 420 q 222 409 219 391 q 217 373 212 349 q 255 422 296 454 q 337 486 388 486 q 439 486 469 443 q 499 401 499 325 q 499 259 479 199 q 460 139 424 92 q 393 51 353 29 q 313 8 269 8 q 233 8 207 21 q 180 35 164 62 l 128 -110 q 125 -125 125 -134 q 124 -142 124 -148 q 124 -170 136 -177 q 149 -185 208 -185 l 203 -213 q 171 -210 144 -209 q 116 -208 90 -208 q 65 -208 39 -209 q 12 -210 -17 -213 l -13 -185 l -4 -185 q 38 -185 49 -133 q 50 -127 51 -124 z"},"X":{"x_min":0,"x_max":637,"ha":637,"o":"m 291 327 l 129 97 q 124 89 120 79 q 116 69 116 62 q 116 49 129 42 q 142 35 169 32 l 169 0 q 144 2 120 4 q 96 5 75 5 q 54 5 31 4 q 8 2 -18 0 l -18 32 q 14 33 38 49 q 62 65 99 115 l 277 356 l 172 586 q 145 646 122 665 q 99 685 64 685 l 59 685 l 59 718 q 86 716 117 715 q 147 714 181 714 q 216 714 245 715 q 275 716 302 718 l 302 685 q 268 685 253 679 q 239 672 239 658 q 239 649 242 638 q 245 628 251 616 l 341 428 l 477 620 q 483 629 487 639 q 490 649 490 657 q 490 668 477 675 q 464 682 437 685 l 437 718 q 458 716 482 715 q 505 714 531 714 q 557 714 580 715 q 603 716 624 718 l 624 685 q 591 684 567 667 q 542 651 507 603 l 355 397 l 479 132 q 482 125 489 110 q 525 32 585 32 l 588 32 l 588 0 q 553 2 523 4 q 494 5 466 5 q 439 5 409 4 q 380 2 345 0 l 345 32 q 379 32 394 38 q 408 44 408 59 q 408 67 405 78 q 402 89 396 102 z"},"*":{"x_min":0,"x_max":454,"ha":454,"o":"m 266 553 q 283 546 312 537 q 381 513 381 492 q 381 480 372 471 q 364 462 353 462 q 338 462 294 501 q 270 522 255 535 z m 255 585 q 269 596 291 615 q 338 657 354 657 q 365 657 373 648 q 381 640 381 628 q 381 606 306 581 q 281 572 266 567 z m 222 593 q 218 619 211 652 q 204 686 204 693 q 204 709 211 718 q 219 727 233 727 q 247 727 254 718 q 261 709 261 693 q 261 686 255 653 q 248 619 244 593 z m 199 568 q 183 574 155 583 q 84 607 84 628 q 84 640 92 649 q 101 658 111 658 q 126 658 174 616 q 197 597 210 586 z m 211 535 q 194 522 168 499 q 127 463 112 463 q 101 463 93 471 q 85 480 85 492 q 85 514 160 539 q 186 548 200 553 z m 243 528 q 247 503 254 469 q 261 435 261 427 q 261 410 254 402 q 247 393 233 393 q 219 393 211 402 q 204 410 204 427 q 204 435 211 468 q 218 502 222 528 z"},"Y":{"x_min":0,"x_max":539,"ha":539,"o":"m 315 316 l 282 125 q 279 106 277 91 q 275 76 275 70 q 275 50 289 42 q 304 34 342 32 l 342 0 q 311 2 283 4 q 256 5 230 5 q 205 5 177 4 q 149 2 116 0 l 116 32 q 156 33 172 45 q 188 57 195 98 l 228 295 l 96 604 q 76 652 58 667 q 41 683 12 685 l 12 718 q 35 716 61 715 q 86 714 117 714 q 147 714 175 715 q 202 716 228 718 l 228 685 q 194 682 183 676 q 172 670 172 657 q 172 650 174 641 q 177 632 183 617 l 295 344 l 445 619 q 452 631 455 641 q 458 651 458 658 q 458 672 444 678 q 430 684 395 685 l 395 718 q 415 716 437 715 q 459 714 485 714 q 511 714 534 715 q 557 716 578 718 l 578 685 q 549 684 529 668 q 508 653 485 613 z"},"c":{"x_min":0,"x_max":447,"ha":447,"o":"m 384 147 q 354 66 307 28 q 260 -10 190 -10 q 112 -10 65 42 q 19 95 19 183 q 19 250 43 312 q 68 373 113 417 q 147 451 187 469 q 227 486 270 486 q 327 486 363 458 q 398 429 398 384 q 398 364 389 353 q 381 341 366 341 q 349 341 341 354 q 333 367 333 394 q 333 403 334 414 q 336 425 339 439 q 326 449 310 453 q 293 458 274 458 q 206 458 157 375 q 108 293 108 173 q 108 104 135 66 q 163 28 213 28 q 261 28 299 61 q 336 94 361 157 z"},"!":{"x_min":0,"x_max":343,"ha":343,"o":"m 124 155 q 156 403 174 622 q 175 642 176 647 q 181 692 192 709 q 203 727 225 727 q 246 727 257 716 q 267 704 267 681 q 267 669 225 494 q 182 319 148 151 z m 119 -5 q 98 -5 83 9 q 69 23 69 45 q 69 65 84 80 q 99 95 119 95 q 139 95 154 80 q 169 65 169 45 q 169 23 155 9 q 141 -5 119 -5 z"},"/":{"x_min":0,"x_max":296,"ha":296,"o":"m -75 -93 l 290 727 l 338 727 l -27 -93 z"},"[":{"x_min":0,"x_max":310,"ha":310,"o":"m 183 733 q 198 728 214 725 q 230 722 249 722 q 274 722 295 726 q 315 729 334 736 l 334 708 q 313 701 291 698 q 269 695 244 695 l 233 695 l 90 -137 l 98 -137 q 117 -137 137 -140 q 157 -144 179 -150 l 179 -178 q 161 -171 139 -167 q 118 -164 93 -164 q 74 -164 58 -167 q 42 -169 27 -175 z"},"6":{"x_min":0,"x_max":551,"ha":551,"o":"m 131 292 q 129 277 129 264 q 128 250 128 237 q 128 137 164 79 q 201 20 262 20 q 325 20 369 87 q 413 154 413 255 q 413 326 383 365 q 353 403 298 403 q 251 403 209 375 q 167 347 131 292 z m 131 336 q 169 391 214 417 q 259 444 314 444 q 393 444 441 391 q 490 338 490 252 q 490 141 424 66 q 357 -9 260 -9 q 163 -9 104 68 q 45 144 45 270 q 45 368 72 454 q 98 541 146 601 q 190 657 238 683 q 286 709 344 709 q 418 709 465 667 q 511 625 511 560 q 511 525 500 505 q 488 485 468 485 q 454 485 447 494 q 439 503 439 519 q 439 540 448 558 q 458 577 474 590 q 463 633 433 655 q 403 677 356 677 q 271 677 210 586 q 150 496 131 336 z"},"r":{"x_min":0,"x_max":431,"ha":431,"o":"m 61 0 l 137 345 q 142 365 144 381 q 146 396 146 407 q 146 426 138 437 q 131 448 117 448 q 92 448 67 426 q 41 403 10 354 l -10 367 q 23 426 63 456 q 103 486 147 486 q 181 486 198 469 q 216 452 216 419 q 216 403 213 381 q 209 360 203 333 q 239 409 277 447 q 314 485 354 485 q 381 485 396 468 q 411 452 411 422 q 411 398 402 386 q 393 373 375 373 q 356 373 346 389 q 336 405 336 436 l 336 449 q 295 446 250 375 q 205 305 182 205 l 137 0 z"},"2":{"x_min":0,"x_max":551,"ha":551,"o":"m 25 -7 l 10 17 q 76 98 194 195 q 214 211 223 219 q 321 302 360 367 q 399 431 399 504 q 399 578 358 622 q 317 666 250 666 q 184 666 140 625 q 96 585 96 526 q 96 516 98 504 q 100 493 103 481 q 136 477 155 461 q 173 446 173 423 q 173 407 163 397 q 154 387 138 387 q 107 387 85 423 q 62 459 62 512 q 62 598 121 654 q 179 709 271 709 q 366 709 423 652 q 481 595 481 501 q 481 437 457 386 q 432 335 374 282 q 354 264 286 218 q 218 173 179 144 q 153 125 125 100 q 98 74 66 39 q 104 60 137 71 q 169 81 196 81 q 220 81 275 72 q 329 62 359 62 q 396 62 418 83 q 439 104 458 159 l 480 153 q 455 48 432 20 q 409 -9 361 -9 q 314 -9 234 5 q 153 19 121 19 q 96 19 73 13 q 49 6 25 -7 z"},"{":{"x_min":0,"x_max":500,"ha":500,"o":"m 413 740 l 413 715 q 344 714 318 688 q 293 662 293 586 l 293 516 q 293 406 263 365 q 233 325 153 310 q 233 295 263 255 q 293 214 293 104 l 293 34 q 293 -42 318 -68 q 343 -93 413 -94 l 413 -119 l 408 -119 q 302 -119 263 -83 q 223 -47 223 50 l 223 154 q 223 231 194 260 q 166 290 86 296 l 86 325 q 167 333 195 361 q 223 390 223 467 l 223 571 q 223 668 263 704 q 302 740 408 740 z"},"9":{"x_min":0,"x_max":551,"ha":551,"o":"m 424 415 q 428 443 429 460 q 431 477 431 490 q 431 577 398 628 q 364 679 308 679 q 282 679 256 666 q 229 652 210 628 q 179 590 161 538 q 144 485 144 429 q 144 361 175 322 q 206 282 259 282 q 308 282 351 318 q 395 353 424 415 z m 410 338 q 372 291 325 265 q 277 240 227 240 q 156 240 113 291 q 70 341 70 425 q 70 548 135 628 q 200 709 298 709 q 391 709 445 636 q 500 563 500 439 q 500 360 483 288 q 466 215 433 154 q 390 74 330 33 q 270 -9 198 -9 q 127 -9 80 31 q 32 72 32 130 q 32 163 44 183 q 56 203 75 203 q 90 203 98 194 q 105 185 105 166 q 105 147 95 129 q 85 110 69 98 q 86 61 117 42 q 147 22 188 22 q 268 22 327 105 q 385 188 410 338 z"}," ":{"x_min":0,"x_max":275,"ha":275,"o":""},"I":{"x_min":0,"x_max":345,"ha":345,"o":"m 9 0 l 9 32 q 49 33 65 45 q 82 58 88 98 l 170 592 q 173 612 175 627 q 177 642 177 647 q 177 667 163 675 q 148 683 110 685 l 110 718 q 135 716 163 715 q 190 714 222 714 q 254 714 282 715 q 311 716 336 718 l 336 685 q 295 684 280 672 q 264 660 257 620 l 176 125 q 173 104 171 89 q 169 74 169 70 q 169 50 183 42 q 198 34 236 32 l 236 0 q 205 2 177 4 q 150 5 124 5 q 98 5 70 4 q 42 2 9 0 z"},"H":{"x_min":0,"x_max":778,"ha":778,"o":"m 220 389 l 570 389 l 603 592 q 606 612 608 627 q 610 642 610 647 q 610 667 596 675 q 582 683 543 685 l 543 718 q 568 716 595 715 q 623 714 655 714 q 688 714 715 715 q 743 716 769 718 l 769 685 q 729 684 713 672 q 697 660 690 620 l 609 125 q 607 116 605 102 q 601 73 601 70 q 601 51 616 42 q 630 34 669 32 l 669 0 q 637 2 608 4 q 580 5 553 5 q 526 5 498 4 q 469 2 435 0 l 435 32 q 482 34 498 45 q 514 57 521 98 l 564 356 l 215 356 l 176 125 q 173 107 171 92 q 169 76 169 70 q 169 50 183 42 q 198 34 236 32 l 236 0 q 205 2 177 4 q 150 5 124 5 q 98 5 70 4 q 42 2 9 0 l 9 32 q 49 33 65 45 q 82 58 88 98 l 170 592 q 173 612 175 627 q 177 642 177 647 q 177 667 163 675 q 148 683 110 685 l 110 718 q 136 716 164 715 q 192 714 225 714 q 258 714 288 715 q 317 716 343 718 l 343 685 q 295 684 279 672 q 263 660 257 620 z"},"4":{"x_min":0,"x_max":551,"ha":551,"o":"m 387 117 q 386 111 385 102 q 383 83 383 78 q 383 52 395 41 q 407 30 436 30 l 445 30 l 445 0 q 412 2 382 4 q 353 5 326 5 q 299 5 270 4 q 241 2 207 0 l 207 30 l 212 30 q 271 30 293 50 q 315 69 327 158 l 333 205 q 319 205 302 204 q 286 204 253 204 q 195 204 139 206 q 83 207 28 210 l 28 231 q 127 358 232 478 q 337 599 448 713 l 475 684 q 364 583 268 479 q 172 374 94 268 q 150 264 195 263 q 240 261 280 261 q 291 261 311 262 q 332 262 342 262 l 389 562 l 458 577 l 408 262 l 483 264 l 458 205 l 399 205 z"},"~":{"x_min":0,"x_max":833,"ha":833,"o":"m 747 370 l 747 306 q 698 271 651 253 q 604 236 558 236 q 537 236 514 240 q 491 245 465 253 q 450 258 422 268 q 324 303 275 303 q 234 303 190 285 q 146 267 87 225 l 87 290 q 138 326 186 343 q 233 361 276 361 q 303 361 333 355 q 362 349 418 329 q 424 327 435 323 q 515 294 559 294 q 601 294 645 312 q 689 330 747 370 z"},"D":{"x_min":0,"x_max":692,"ha":692,"o":"m 161 32 l 202 32 q 299 32 350 44 q 400 57 435 86 q 492 135 524 225 q 556 314 556 428 q 556 566 504 625 q 453 685 332 685 l 270 685 z m 9 0 l 9 32 q 49 33 65 45 q 82 58 88 98 l 170 592 q 173 612 175 627 q 177 642 177 647 q 177 667 163 675 q 148 683 110 685 l 110 718 l 287 718 q 401 718 452 707 q 502 696 538 670 q 596 628 625 563 q 655 499 655 412 q 655 316 623 232 q 590 147 533 93 q 498 60 456 39 q 414 18 365 9 q 336 4 304 2 q 271 0 222 0 l 195 0 z"},"^":{"x_min":0,"x_max":1000,"ha":1000,"o":"m 456 714 l 543 714 l 797 438 l 752 438 l 499 651 l 245 438 l 201 438 z"},"0":{"x_min":0,"x_max":551,"ha":551,"o":"m 514 445 q 514 243 434 117 q 354 -9 230 -9 q 141 -9 88 62 q 36 133 36 255 q 36 457 116 582 q 197 708 321 708 q 410 708 462 637 q 514 566 514 445 z m 316 678 q 231 678 176 555 q 121 432 121 234 q 121 128 150 74 q 180 20 237 20 q 278 20 314 52 q 349 84 374 145 q 401 212 416 292 q 430 371 430 457 q 430 565 401 622 q 372 678 316 678 z"},"F":{"x_min":0,"x_max":579,"ha":579,"o":"m 219 381 l 264 381 q 356 381 384 403 q 411 425 419 489 l 444 489 q 432 428 422 362 q 412 296 404 226 l 378 226 q 380 241 381 255 q 382 268 382 279 q 382 322 366 335 q 351 348 294 348 l 213 348 l 176 125 q 173 107 171 92 q 169 76 169 70 q 169 50 185 41 q 202 32 236 32 l 257 32 l 257 0 q 222 2 191 4 q 160 5 131 5 q 103 5 73 4 q 42 2 9 0 l 9 32 q 49 33 65 45 q 82 58 88 98 l 170 592 q 173 612 175 627 q 177 642 177 647 q 177 667 163 675 q 148 683 110 685 l 110 718 l 567 718 l 561 524 l 535 524 q 535 530 536 540 q 536 549 536 554 q 536 629 509 657 q 481 685 404 685 l 269 685 z"},"`":{"x_min":0,"x_max":500,"ha":500,"o":"m 262 691 l 382 540 l 343 540 l 213 637 q 198 648 191 658 q 184 668 184 678 q 184 694 195 705 q 206 716 221 716 q 231 716 242 709 q 252 703 262 691 z"},"k":{"x_min":0,"x_max":551,"ha":551,"o":"m 26 0 l 152 618 q 156 638 158 651 q 160 665 160 673 q 160 695 151 702 q 142 709 96 711 l 96 738 q 118 737 129 736 q 141 736 150 736 q 177 736 203 738 q 229 739 254 743 l 155 260 q 213 375 269 430 q 325 486 382 486 q 415 486 434 467 q 452 448 452 414 q 452 358 399 309 q 346 259 255 231 q 299 228 319 209 q 338 191 349 137 q 351 128 353 114 q 364 48 402 48 q 427 48 448 69 q 469 91 490 139 l 508 129 q 477 57 443 23 q 408 -10 364 -10 q 325 -10 307 16 q 289 41 276 143 q 276 144 275 147 q 268 209 222 214 l 222 243 q 303 263 347 303 q 390 343 390 398 q 390 423 380 435 q 370 447 349 447 q 330 447 308 433 q 286 418 262 390 q 250 375 227 340 q 205 304 177 254 q 158 221 146 191 q 133 162 130 147 l 102 0 z"},"u":{"x_min":0,"x_max":596,"ha":596,"o":"m 491 477 l 414 131 q 410 110 407 94 q 405 78 405 69 q 405 52 413 40 q 420 29 431 29 q 458 29 483 49 q 508 70 541 122 l 561 110 q 527 51 488 21 q 448 -9 404 -9 q 370 -9 353 8 q 336 24 336 57 q 336 74 339 96 q 343 118 349 144 q 292 60 247 25 q 202 -10 152 -10 q 109 -10 85 12 q 61 33 61 72 q 61 92 68 120 q 74 147 90 192 l 148 357 q 154 374 158 388 q 161 403 161 413 q 161 427 154 436 q 146 444 134 444 q 113 444 87 418 q 61 392 35 345 l 12 357 q 47 421 85 454 q 124 486 165 486 q 199 486 220 466 q 240 446 240 413 q 240 400 237 384 q 233 368 227 350 l 159 160 q 148 129 143 107 q 137 85 137 72 q 137 49 146 40 q 155 30 176 30 q 224 30 286 105 q 349 180 369 272 l 414 477 z"},"]":{"x_min":0,"x_max":310,"ha":310,"o":"m 103 -175 q 88 -169 72 -167 q 56 -164 37 -164 q 12 -164 -9 -167 q -31 -171 -49 -178 l -49 -150 q -29 -144 -6 -140 q 17 -137 42 -137 l 53 -137 l 196 695 l 188 695 q 169 695 149 698 q 129 702 107 708 l 107 736 q 125 729 146 726 q 167 722 192 722 q 211 722 227 725 q 244 728 258 733 z"},"U":{"x_min":0,"x_max":748,"ha":748,"o":"m 616 592 q 619 612 621 626 q 623 641 623 647 q 623 667 607 676 q 590 684 545 685 l 545 718 q 569 716 594 715 q 618 714 646 714 q 673 714 697 715 q 720 716 740 718 l 740 685 q 700 684 684 672 q 669 660 662 620 l 605 279 q 578 119 512 55 q 446 -9 313 -9 q 213 -9 156 38 q 99 84 99 164 q 99 190 103 224 q 107 259 117 309 l 169 592 q 172 609 174 625 q 176 640 176 647 q 176 667 162 675 q 147 683 109 685 l 109 718 q 135 716 163 715 q 192 714 225 714 q 258 714 288 715 q 317 716 343 718 l 343 685 q 296 684 280 672 q 264 661 257 620 l 200 287 l 198 276 q 185 195 185 167 q 185 100 225 66 q 264 32 342 32 q 403 32 447 53 q 491 74 517 116 q 551 171 575 324 q 576 334 577 339 z"},"o":{"x_min":0,"x_max":490,"ha":490,"o":"m 357 358 q 357 405 335 432 q 314 459 276 459 q 248 459 221 444 q 195 428 176 400 q 141 348 120 272 q 99 197 99 119 q 99 71 121 45 q 143 18 181 18 q 209 18 235 33 q 261 48 280 76 q 315 127 336 203 q 357 279 357 358 z m 271 486 q 347 486 392 438 q 437 391 437 310 q 437 175 363 83 q 289 -9 183 -9 q 106 -9 62 41 q 19 90 19 178 q 19 241 40 298 q 60 355 98 399 q 134 441 178 464 q 223 486 271 486 z"},"N":{"x_min":0,"x_max":743,"ha":743,"o":"m 201 599 l 127 170 q 123 146 120 124 q 118 103 118 87 q 118 58 135 45 q 152 33 194 32 l 194 0 q 167 2 144 4 q 120 5 99 5 q 78 5 55 4 q 33 2 6 0 l 6 32 l 11 32 q 67 32 87 144 l 88 148 l 167 599 q 169 608 170 615 q 171 623 171 626 q 171 654 146 670 q 121 685 73 685 l 69 685 l 69 718 q 87 716 107 715 q 127 714 150 714 q 172 714 192 715 q 212 716 230 718 l 548 147 l 614 548 q 618 571 620 592 q 622 613 622 630 q 622 659 605 672 q 588 684 547 685 l 547 718 q 569 716 593 715 q 616 714 643 714 q 669 714 692 715 q 715 716 735 718 l 735 685 l 730 685 q 674 685 654 573 l 653 569 l 554 6 l 535 -5 z"},"+":{"x_min":0,"x_max":833,"ha":833,"o":"m 388 596 l 446 596 l 446 327 l 709 327 l 709 270 l 446 270 l 446 0 l 388 0 l 388 270 l 124 270 l 124 327 l 388 327 z"},"G":{"x_min":0,"x_max":706,"ha":706,"o":"m 525 0 l 521 51 q 472 21 421 6 q 370 -9 316 -9 q 183 -9 108 67 q 33 142 33 276 q 33 385 67 473 q 101 561 167 625 q 217 673 283 700 q 348 727 414 727 q 479 727 531 703 q 583 678 622 630 l 639 668 l 662 666 q 654 623 646 569 q 638 515 627 432 l 603 432 q 604 438 604 444 q 604 451 604 463 q 604 574 555 633 q 506 692 415 692 q 289 692 211 579 q 133 466 133 281 q 133 156 185 91 q 237 25 336 25 q 375 25 411 37 q 446 50 478 75 l 495 177 q 496 182 497 189 q 499 205 499 210 q 499 229 482 237 q 465 244 410 244 l 410 277 q 437 275 467 274 q 497 273 532 273 q 568 273 599 274 q 631 275 660 277 l 660 244 q 616 243 600 230 q 584 218 576 165 l 548 0 z"},"q":{"x_min":0,"x_max":502,"ha":502,"o":"m 323 -110 q 321 -118 320 -126 q 319 -134 319 -143 q 319 -162 327 -171 q 335 -180 356 -185 l 356 -213 q 331 -210 307 -209 q 282 -208 259 -208 q 236 -208 210 -209 q 184 -210 151 -213 l 151 -185 q 201 -184 219 -172 q 236 -160 244 -124 l 304 145 q 261 74 219 41 q 177 8 131 8 q 80 8 49 46 q 19 84 19 150 q 19 200 35 253 q 52 306 83 356 q 121 417 171 452 q 221 486 272 486 q 309 486 334 470 q 359 454 375 420 q 391 433 406 449 q 421 466 435 486 l 455 486 z m 355 373 q 355 374 355 376 q 356 379 356 380 q 356 406 333 431 q 309 456 281 456 q 250 456 219 429 q 188 403 163 355 q 135 301 119 242 q 103 183 103 139 q 103 99 119 76 q 135 54 164 54 q 199 54 237 94 q 276 133 321 215 z"},"d":{"x_min":0,"x_max":553,"ha":553,"o":"m 355 354 q 355 355 355 357 q 356 360 356 361 q 356 388 333 413 q 311 438 282 438 q 250 438 219 412 q 188 385 163 336 q 135 282 119 223 q 103 164 103 119 q 103 79 119 56 q 135 34 164 34 q 197 34 234 71 q 271 107 316 186 z m 306 126 q 264 57 221 24 q 178 -9 131 -9 q 78 -9 49 28 q 19 65 19 131 q 19 184 34 235 q 48 287 77 333 q 115 396 167 431 q 219 466 272 466 q 307 466 330 453 q 354 440 366 413 l 413 618 q 417 638 419 651 q 421 665 421 673 q 421 709 344 711 q 340 711 338 711 l 338 738 q 362 737 375 736 q 388 736 398 736 q 429 736 458 738 q 487 739 515 743 l 384 164 q 380 148 378 129 q 376 109 376 90 q 376 61 384 48 q 392 35 409 35 q 427 35 448 57 q 469 80 497 130 l 518 119 q 486 53 449 21 q 412 -10 366 -10 q 334 -10 317 11 q 301 32 301 73 q 301 81 302 93 q 303 105 306 126 z"},"1":{"x_min":0,"x_max":551,"ha":551,"o":"m 280 532 q 283 547 285 562 q 286 578 286 592 q 286 610 280 618 q 273 625 257 625 q 252 625 245 624 q 237 622 227 619 l 163 600 l 156 625 q 205 639 261 659 q 318 679 380 705 l 281 148 q 277 123 275 107 q 273 91 273 81 q 273 52 287 41 q 301 30 338 30 l 350 30 l 350 0 q 313 2 282 4 q 250 5 220 5 q 190 5 158 4 q 126 2 89 0 l 89 30 l 107 30 q 192 30 213 154 l 214 158 z"},"5":{"x_min":0,"x_max":551,"ha":551,"o":"m 141 382 q 173 403 205 414 q 237 424 271 424 q 361 424 413 373 q 464 323 464 234 q 464 184 442 136 q 421 89 382 54 q 348 23 306 7 q 263 -9 215 -9 q 136 -9 88 30 q 41 68 41 132 q 41 163 52 183 q 63 202 81 202 q 93 202 101 192 q 109 183 109 168 q 109 151 101 133 q 93 115 79 100 q 84 69 119 48 q 153 26 199 26 q 280 26 332 85 q 384 144 384 237 q 384 308 347 349 q 310 390 245 390 q 215 390 187 379 q 159 369 131 347 l 104 361 q 119 450 150 627 q 160 682 165 709 q 252 688 318 676 q 384 664 416 664 q 433 664 445 670 q 458 676 475 693 l 491 679 q 459 635 433 618 q 407 601 374 601 q 348 601 301 609 q 253 616 185 631 q 171 558 160 498 q 149 438 141 382 z"}}}
